<?xml version="1.0" encoding="UTF-8"?>
<svg id="Layer_1" data-name="Layer 1" xmlns="http://www.w3.org/2000/svg" xmlns:xlink="http://www.w3.org/1999/xlink" viewBox="0 0 1920 990">
  <defs>
    <style>
      .cls-1 {
        fill: #be3f59;
      }

      .cls-2 {
        fill: #b23d5a;
      }

      .cls-3 {
        fill: #b84059;
      }

      .cls-4 {
        clip-path: url(#clippath);
      }

      .cls-5 {
        fill: none;
      }

      .cls-6 {
        fill: url(#linear-gradient);
      }

      .cls-7 {
        fill: #bf4457;
      }
    </style>
    <clipPath id="clippath">
      <rect id="SVGID" class="cls-5" x="465" y="-465" width="990" height="1920" transform="translate(465 1455) rotate(-90)"/>
    </clipPath>
    <linearGradient id="linear-gradient" x1="3640.73" y1="-444.46" x2="4630.73" y2="-444.46" gradientTransform="translate(-3175.73 939.46)" gradientUnits="userSpaceOnUse">
      <stop offset="0" stop-color="#b83f5b"/>
      <stop offset="1" stop-color="#d2525a"/>
    </linearGradient>
  </defs>
  <g class="cls-4">
    <rect class="cls-6" x="465" y="-465" width="990" height="1920" transform="translate(465 1455) rotate(-90)"/>
    <path class="cls-1" d="M-5.19,1052.92c8.99-1.31,17.37-2.93,25.11-4.7,1.32-.32,4.64-1.31,7.39-4.38,3.79-4.24,3.67-9.31,3.62-10.41,.26-8.64,.51-17.27,.77-25.91,.25-1.93,.97-5.6,3.52-9.39,2.29-3.41,5.03-5.38,6.65-6.38,.02,0,.03-.01,.05-.02,5.74-2.19,11.4-4.58,16.96-7.16,3.58-1.48,7.15-3.04,10.7-4.68,1.66-.64,5.89-2,11.02-.75,3.41,.83,5.81,2.46,7.15,3.53,6.34,5.65,12.67,11.29,19.01,16.94,.95,.94,4.16,3.87,9.31,4.5,5.2,.63,9.05-1.49,10.19-2.17,5.7-3.89,11.64-8.21,17.72-13.01,7.13-5.63,13.58-11.22,19.39-16.63,.99-.94,3.37-3.45,4.21-7.49,1.16-5.57-1.47-9.9-2.06-10.82-4.1-7.61-8.19-15.22-12.29-22.82-.75-1.8-1.96-5.34-1.65-9.89,.28-4.1,1.66-7.17,2.57-8.85,2.21-2.87,4.35-5.78,6.44-8.71,3.86-4.78,7.59-9.72,11.18-14.81,1.12-1.38,4.1-4.67,9.17-6.16,3.36-.99,6.27-.78,7.95-.52,8.31,1.72,16.62,3.44,24.93,5.17,1.3,.34,5.54,1.27,10.31-.76,4.82-2.05,7.1-5.81,7.74-6.98,2.99-6.22,5.97-12.93,8.84-20.13,3.36-8.44,6.15-16.51,8.48-24.1,.39-1.31,1.19-4.67-.1-8.59-1.78-5.41-6.23-7.84-7.2-8.34-7.35-4.54-14.7-9.08-22.05-13.62-1.55-1.18-4.36-3.64-6.37-7.74-1.81-3.69-2.15-7.04-2.2-8.95,.65-4.85,1.16-9.68,1.56-14.5,.72-4.98,1.32-10,1.78-15.07,.28-1.75,1.22-6.1,4.86-9.92,2.42-2.54,5.04-3.81,6.63-4.43,8.06-2.66,16.12-5.33,24.18-7.99,1.29-.36,5.43-1.67,8.55-5.81,3.15-4.19,3.24-8.58,3.21-9.91-.52-6.88-1.29-14.18-2.41-21.85-1.31-8.99-2.93-17.37-4.7-25.11-.32-1.32-1.31-4.64-4.38-7.39-4.24-3.79-9.31-3.67-10.41-3.62-8.64-.26-17.27-.51-25.91-.77-1.93-.25-5.6-.97-9.39-3.52-3.41-2.29-5.38-5.03-6.38-6.65-1.33-3.22-2.72-6.41-4.15-9.56-2-5.28-4.17-10.54-6.51-15.75-.49-1.84-1.12-5.15-.45-9.2,.75-4.5,2.75-7.66,3.9-9.24,5.75-6.45,11.5-12.9,17.25-19.35,.79-.76,4.36-4.36,4.52-10.05,.12-4.12-1.62-7.12-2.36-8.26-4.4-6.61-9.38-13.54-15.01-20.67-4.8-6.08-9.57-11.66-14.22-16.77-.95-.93-4.2-3.89-9.41-4.48-5.15-.58-8.96,1.52-10.1,2.22-7.47,4.02-14.95,8.05-22.42,12.07-1.54,.73-4.27,1.76-7.77,1.77-5.28,.02-9.08-2.28-10.54-3.29-4.96-3.91-10.01-7.62-15.15-11.15-2.96-2.32-5.97-4.6-9.05-6.81-1.34-1.34-3.55-3.9-4.99-7.75-1.6-4.27-1.45-8.01-1.24-9.95,1.75-8.46,3.51-16.92,5.26-25.38,.3-1.05,1.59-5.95-1.11-10.96-1.96-3.63-4.96-5.36-6.17-5.97-7.11-3.52-14.9-7.04-23.33-10.4-7.2-2.86-14.12-5.31-20.69-7.41-1.29-.33-5.59-1.27-10.39,.83-4.76,2.07-6.99,5.8-7.64,6.97-4.46,7.22-8.92,14.44-13.38,21.66-.97,1.4-2.81,3.66-5.84,5.42-4.56,2.66-9.01,2.56-10.78,2.43-5.03-.73-10.06-1.31-15.07-1.77-4.78-.73-9.6-1.36-14.47-1.85-1.84-.49-5.02-1.6-8.19-4.21-3.52-2.9-5.26-6.21-6.05-7.99-2.71-8.2-5.42-16.41-8.14-24.61-.26-1.06-1.6-5.95-6.44-8.94-3.51-2.16-6.97-2.16-8.33-2.09-7.92,.51-16.42,1.35-25.41,2.66-7.67,1.12-14.89,2.46-21.63,3.93-1.28,.36-5.47,1.7-8.58,5.91-3.08,4.17-3.16,8.52-3.13,9.86-.25,8.48-.51,16.97-.76,25.45-.14,1.7-.61,4.57-2.35,7.62-2.62,4.58-6.52,6.72-8.12,7.49-5.78,2.31-11.45,4.79-17,7.44-3.34,1.35-6.66,2.76-9.97,4.24-1.84,.49-5.15,1.12-9.2,.45-4.5-.75-7.66-2.75-9.24-3.9-6.45-5.75-12.9-11.5-19.35-17.25-.76-.79-4.36-4.36-10.05-4.52-4.12-.12-7.12,1.61-8.26,2.36-6.61,4.4-13.54,9.38-20.67,15.01-6.08,4.8-11.66,9.57-16.77,14.22-.93,.95-3.89,4.2-4.48,9.41-.58,5.15,1.52,8.96,2.22,10.1,4.02,7.47,8.05,14.95,12.07,22.42,.73,1.54,1.76,4.27,1.77,7.77,.02,5.28-2.28,9.08-3.29,10.54-2.42,3.07-4.76,6.18-7.03,9.32-3.8,4.81-7.44,9.75-10.9,14.83,0,.01-.02,.03-.03,.04-1.34,1.34-3.9,3.55-7.75,4.99-4.27,1.6-8.01,1.45-9.95,1.24-8.46-1.75-16.92-3.51-25.38-5.26-1.05-.3-5.95-1.59-10.96,1.11-3.63,1.96-5.36,4.96-5.97,6.17-3.52,7.11-7.04,14.9-10.4,23.33-2.86,7.2-5.31,14.12-7.41,20.69-.33,1.29-1.27,5.59,.83,10.39,2.07,4.76,5.8,6.99,6.97,7.64,7.22,4.46,14.44,8.92,21.66,13.38,1.4,.97,3.66,2.81,5.42,5.84,2.66,4.56,2.56,9.01,2.43,10.78-.22,1.53-.43,3.06-.63,4.6-.56,3.68-1.03,7.36-1.42,11.05-.34,2.69-.65,5.38-.91,8.08-.24,1.93-.46,3.87-.66,5.81-.49,1.84-1.6,5.02-4.21,8.19-2.9,3.52-6.21,5.26-7.99,6.05-8.2,2.71-16.41,5.42-24.61,8.14-1.06,.26-5.95,1.6-8.94,6.44-2.16,3.51-2.16,6.97-2.09,8.33,.51,7.92,1.35,16.42,2.66,25.41,1.12,7.67,2.46,14.89,3.93,21.63,.36,1.28,1.7,5.47,5.91,8.58,4.17,3.08,8.52,3.16,9.86,3.13,8.48,.25,16.97,.51,25.45,.76,1.7,.14,4.57,.61,7.62,2.35,4.58,2.62,6.72,6.52,7.49,8.12,2.21,5.53,4.58,10.96,7.1,16.27,.36,.8,.73,1.59,1.1,2.38,1.48,3.58,3.04,7.15,4.68,10.7,.64,1.66,2,5.89,.75,11.02-.83,3.41-2.46,5.81-3.53,7.15-5.65,6.34-11.29,12.67-16.94,19.01-.94,.95-3.87,4.16-4.5,9.31-.63,5.2,1.49,9.05,2.17,10.19,3.89,5.7,8.21,11.64,13.01,17.72,5.63,7.13,11.22,13.58,16.63,19.39,.94,.99,3.45,3.37,7.49,4.21,5.57,1.16,9.9-1.47,10.82-2.07,7.61-4.1,15.22-8.19,22.82-12.29,1.8-.75,5.34-1.96,9.89-1.65,4.1,.28,7.17,1.66,8.85,2.57,2.8,2.16,5.63,4.24,8.48,6.28,.28,.22,.57,.44,.85,.66,4.59,3.68,9.31,7.25,14.18,10.68,1.38,1.12,4.67,4.1,6.16,9.17,.99,3.36,.78,6.27,.52,7.95-1.72,8.31-3.44,16.62-5.17,24.93-.34,1.3-1.27,5.54,.76,10.31,2.05,4.82,5.81,7.09,6.98,7.74,6.22,2.99,12.93,5.97,20.13,8.84,8.44,3.36,16.51,6.15,24.1,8.48,1.3,.39,4.67,1.19,8.59-.1,5.41-1.78,7.84-6.23,8.34-7.2,4.54-7.35,9.08-14.7,13.62-22.05,1.18-1.55,3.64-4.37,7.74-6.37,3.69-1.81,7.04-2.15,8.95-2.2,1.94,.26,3.87,.49,5.8,.71,2.69,.37,5.38,.7,8.07,.99,3.68,.47,7.38,.87,11.08,1.18,1.53,.16,3.07,.32,4.61,.46,1.75,.28,6.1,1.22,9.92,4.86,2.54,2.42,3.81,5.04,4.43,6.63,2.66,8.06,5.33,16.12,7.99,24.18,.36,1.29,1.67,5.43,5.81,8.55,4.19,3.15,8.58,3.24,9.91,3.21,6.88-.52,14.18-1.29,21.85-2.41Zm-15.94-111.24c-109.55,15.97-211.3-59.89-227.27-169.43-15.97-109.55,59.89-211.3,169.43-227.27,109.55-15.97,211.3,59.89,227.27,169.43,15.97,109.55-59.89,211.3-169.43,227.27Z"/>
    <path class="cls-7" d="M1276.28-481.03c-1.98,.15-8.5,.88-14.29,6.14-5.73,5.2-7.11,11.54-7.46,13.51-2.85,12.34-5.7,24.68-8.55,37.02-.7,2.45-2.23,6.52-5.66,10.46-5.18,5.94-11.5,7.93-14.07,8.58-2.27,.42-4.54,.86-6.79,1.31-5.46,.97-10.9,2.07-16.31,3.28-3.96,.8-7.91,1.66-11.86,2.58-2.84,.59-5.68,1.2-8.53,1.85-2.83,.18-7.87,.14-13.59-2.04-6.36-2.42-10.41-6.26-12.38-8.4-7.76-10.3-15.52-20.59-23.28-30.89-.88-1.38-5.11-7.65-13.39-9.55-5.99-1.37-10.89,.28-12.78,1.04-10.95,4.51-22.56,9.77-34.63,15.92-10.3,5.25-19.86,10.6-28.69,15.9-1.64,1.12-6.92,5.02-9.3,12.46-2.36,7.37-.39,13.55,.29,15.43,3.7,12.11,7.41,24.22,11.11,36.34,.62,2.47,1.33,6.76,.32,11.89-1.51,7.73-6,12.62-7.89,14.47-6.76,5.77-13.29,11.72-19.61,17.82-.39,.37-.79,.73-1.18,1.1-3.96,3.42-7.88,6.91-11.74,10.5-2.36,1.57-6.74,4.05-12.79,5.03-6.72,1.09-12.15-.21-14.92-1.09-11.87-5.04-23.74-10.08-35.6-15.11-1.45-.75-8.25-4.07-16.37-1.58-5.88,1.81-9.29,5.69-10.55,7.28-7.23,9.38-14.66,19.74-22.03,31.1-6.3,9.7-11.9,19.11-16.9,28.12-.86,1.79-3.48,7.8-1.83,15.44,1.64,7.56,6.44,11.93,7.97,13.22,9.26,8.64,18.53,17.28,27.79,25.91,1.77,1.83,4.53,5.19,6.22,10.13,2.55,7.45,1.12,13.93,.4,16.48-1.95,5.5-3.77,11.02-5.48,16.54-.44,1.23-.88,2.45-1.3,3.69-3.01,8.25-5.79,16.63-8.3,25.16-.92,2.48-3.56,8.56-10.01,13.09-4.28,3-8.48,4.1-10.99,4.54-12.57,1.54-25.14,3.09-37.71,4.63-1.99,.14-8.44,.85-14.21,6.01-5.83,5.21-7.25,11.61-7.6,13.57-1.25,10.22-2.25,21.13-2.86,32.68-.71,13.53-.79,26.28-.46,38.11,.08,2.03,.56,7.18,4.25,12.09,5.1,6.79,12.55,8.1,14.17,8.34,12.56,2.9,25.13,5.8,37.69,8.7,2.76,.92,7.91,3.06,12.71,7.89,4.32,4.35,6.41,8.93,7.39,11.59,.56,2.86,1.16,5.7,1.78,8.54,.76,3.98,1.58,7.94,2.46,11.88,1.1,5.43,2.3,10.84,3.64,16.23,.5,2.25,1.02,4.49,1.57,6.74,.44,2.61,1.2,9.2-2.12,16.34-2.2,4.74-5.3,7.79-7.25,9.43-10.12,7.62-20.23,15.24-30.35,22.87-1.65,1.12-6.88,4.96-9.3,12.31-2.45,7.42-.47,13.68,.2,15.55,4.02,9.48,8.62,19.43,13.86,29.73,6.15,12.07,12.45,23.15,18.66,33.24,1.08,1.72,4.07,5.94,9.73,8.35,7.81,3.33,14.92,.74,16.44,.14,12.33-3.77,24.66-7.54,36.99-11.31,2.85-.58,8.38-1.31,14.95,.48,5.91,1.61,10.01,4.53,12.19,6.34,.02,.02,.03,.04,.05,.06,5.84,7.07,11.93,13.92,18.24,20.54,3.81,4.35,7.71,8.66,11.73,12.88,1.69,2.04,5.64,7.37,6.34,15.21,.46,5.21-.69,9.4-1.56,11.79-4.95,11.66-9.9,23.32-14.85,34.98-.87,1.8-3.48,7.74-1.9,15.31,1.59,7.65,6.43,12.08,7.95,13.37,8.22,6.2,17.18,12.52,26.87,18.81,11.36,7.38,22.36,13.82,32.78,19.45,1.8,.95,6.49,3.11,12.6,2.37,8.43-1.02,13.29-6.82,14.31-8.1,8.79-9.43,17.59-18.86,26.38-28.29,2.18-1.93,6.61-5.32,13.19-7.06,5.92-1.56,10.94-1.08,13.73-.6,5.12,1.75,10.25,3.39,15.39,4.93,8.61,3.17,17.37,6.08,26.28,8.71,2.48,.92,8.56,3.56,13.09,10.01,3.01,4.28,4.1,8.48,4.54,10.99,1.54,12.57,3.09,25.14,4.63,37.71,.14,1.99,.85,8.44,6.01,14.21,5.21,5.83,11.61,7.25,13.57,7.6,10.22,1.25,21.13,2.25,32.68,2.86,13.53,.71,26.28,.79,38.12,.46,2.03-.08,7.18-.56,12.09-4.25,6.79-5.1,8.1-12.55,8.34-14.17,2.9-12.56,5.8-25.13,8.7-37.69,.92-2.76,3.06-7.91,7.89-12.71,4.35-4.32,8.93-6.41,11.59-7.39,7.16-1.4,14.24-2.99,21.24-4.74,7.39-1.37,14.77-2.92,22.15-4.7,2.61-.44,9.2-1.2,16.34,2.12,4.74,2.2,7.79,5.3,9.43,7.25,7.62,10.12,15.24,20.23,22.87,30.35,1.12,1.65,4.96,6.88,12.31,9.3,7.42,2.45,13.68,.47,15.55-.2,9.48-4.02,19.43-8.62,29.73-13.86,12.07-6.15,23.15-12.45,33.24-18.66,1.72-1.08,5.94-4.07,8.35-9.73,3.33-7.81,.74-14.92,.14-16.44-3.77-12.33-7.54-24.66-11.31-36.99-.58-2.85-1.31-8.38,.48-14.95,1.61-5.91,4.53-10.01,6.34-12.19,4.26-3.72,8.42-7.52,12.51-11.37,7.15-5.94,14.15-12.16,20.98-18.65,2.04-1.69,7.37-5.64,15.21-6.34,5.21-.46,9.4,.69,11.79,1.56,11.66,4.95,23.32,9.9,34.98,14.85,1.8,.87,7.74,3.48,15.31,1.9,7.65-1.59,12.08-6.43,13.37-7.95,6.2-8.22,12.52-17.18,18.81-26.87,7.38-11.36,13.82-22.36,19.45-32.78,.95-1.8,3.11-6.49,2.37-12.6-1.02-8.43-6.82-13.29-8.1-14.31-9.43-8.79-18.86-17.59-28.29-26.38-1.93-2.18-5.32-6.61-7.06-13.19-1.56-5.92-1.08-10.94-.6-13.73,2.76-8.07,5.26-16.18,7.51-24.3,1.7-4.88,3.32-9.8,4.85-14.78,1.26-2.54,3.81-6.88,8.56-10.76,5.27-4.3,10.63-5.89,13.46-6.52,12.8-1.57,25.59-3.14,38.39-4.71,1.63-.07,9.18-.6,14.96-6.82,4.19-4.5,5.2-9.57,5.49-11.58,1.57-11.74,2.82-24.42,3.53-37.95,.6-11.54,.75-22.5,.57-32.8-.15-1.98-.88-8.5-6.14-14.29-5.2-5.73-11.54-7.11-13.51-7.46-12.34-2.85-24.68-5.7-37.02-8.55-2.45-.7-6.52-2.23-10.46-5.66-5.94-5.18-7.93-11.5-8.58-14.07-1.38-7.47-2.96-14.85-4.72-22.15-1.25-7.11-2.68-14.22-4.31-21.33-.18-2.83-.14-7.87,2.04-13.59,2.42-6.36,6.26-10.41,8.4-12.38,10.3-7.76,20.59-15.52,30.89-23.28,1.38-.88,7.65-5.11,9.55-13.39,1.37-5.99-.28-10.89-1.04-12.78-4.51-10.95-9.77-22.56-15.92-34.63-5.25-10.3-10.6-19.86-15.9-28.69-1.12-1.64-5.02-6.92-12.46-9.3-7.37-2.36-13.55-.39-15.43,.29-12.11,3.7-24.22,7.41-36.34,11.11-2.47,.62-6.76,1.33-11.89,.32-7.73-1.51-12.62-6-14.47-7.89-6.03-7.07-12.25-13.89-18.64-20.47-3.5-4.07-7.08-8.09-10.77-12.06-1.57-2.36-4.05-6.74-5.03-12.79-1.09-6.72,.21-12.15,1.09-14.92,5.04-11.87,10.08-23.74,15.11-35.6,.75-1.45,4.07-8.25,1.58-16.37-1.81-5.88-5.69-9.29-7.28-10.55-9.38-7.23-19.74-14.66-31.1-22.04-9.7-6.3-19.11-11.9-28.12-16.9-1.79-.86-7.8-3.48-15.44-1.83-7.56,1.64-11.93,6.44-13.22,7.97-8.64,9.26-17.28,18.53-25.91,27.79-1.83,1.77-5.19,4.53-10.13,6.22-7.45,2.55-13.93,1.12-16.48,.4-5.5-1.95-11.02-3.77-16.54-5.48-8.61-3.07-17.34-5.84-26.18-8.3-.02,0-.05-.02-.07-.02-2.54-1.26-6.88-3.81-10.76-8.56-4.3-5.27-5.89-10.63-6.52-13.46-1.57-12.8-3.14-25.59-4.71-38.39-.07-1.63-.6-9.18-6.82-14.96-4.5-4.19-9.57-5.2-11.58-5.49-11.74-1.57-24.42-2.82-37.95-3.53-11.54-.6-22.5-.75-32.8-.58ZM1830.28,14.27c-15.78,301.08-272.64,532.36-573.73,516.58-301.08-15.78-532.36-272.65-516.58-573.73,15.78-301.08,272.64-532.36,573.73-516.58,301.08,15.78,532.36,272.65,516.58,573.73Z"/>
    <path class="cls-7" d="M174.64-295.86c-1.87,.14-8.05,.84-13.52,5.81-5.42,4.93-6.73,10.92-7.06,12.79-2.7,11.68-5.39,23.36-8.09,35.04-.66,2.32-2.11,6.17-5.36,9.9-4.9,5.62-10.89,7.51-13.32,8.13-2.15,.4-4.29,.81-6.43,1.24-5.17,.92-10.32,1.96-15.44,3.1-3.75,.76-7.49,1.57-11.22,2.44-2.69,.56-5.38,1.14-8.07,1.75-2.68,.17-7.45,.13-12.87-1.93-6.02-2.29-9.86-5.92-11.72-7.95-7.34-9.75-14.69-19.49-22.03-29.24-.83-1.3-4.83-7.24-12.67-9.04-5.67-1.3-10.31,.27-12.09,.98-10.37,4.27-21.36,9.24-32.78,15.07-9.75,4.97-18.8,10.03-27.16,15.05-1.55,1.06-6.55,4.75-8.81,11.8-2.23,6.98-.37,12.83,.28,14.6,3.51,11.46,7.01,22.93,10.52,34.39,.58,2.34,1.26,6.4,.31,11.25-1.43,7.32-5.68,11.94-7.47,13.7-6.4,5.46-12.58,11.09-18.56,16.87-.37,.35-.74,.69-1.11,1.04-3.75,3.23-7.46,6.54-11.11,9.94-2.23,1.49-6.38,3.84-12.11,4.77-6.36,1.03-11.5-.2-14.12-1.03-11.23-4.77-22.47-9.54-33.7-14.31-1.37-.71-7.81-3.86-15.49-1.49-5.56,1.71-8.79,5.39-9.98,6.9-6.85,8.88-13.87,18.68-20.86,29.44-5.96,9.18-11.27,18.09-15.99,26.61-.82,1.69-3.3,7.39-1.73,14.62,1.55,7.16,6.09,11.29,7.54,12.51,8.77,8.18,17.54,16.35,26.3,24.53,1.67,1.73,4.29,4.91,5.89,9.59,2.42,7.06,1.06,13.18,.38,15.6-1.85,5.2-3.57,10.43-5.18,15.66-.41,1.16-.83,2.32-1.23,3.49-2.85,7.81-5.48,15.74-7.86,23.81-.87,2.35-3.37,8.11-9.47,12.39-4.05,2.84-8.03,3.88-10.4,4.3-11.9,1.46-23.8,2.92-35.7,4.38-1.89,.13-7.99,.81-13.45,5.69-5.52,4.93-6.86,10.99-7.19,12.84-1.19,9.67-2.13,20-2.7,30.93-.67,12.81-.75,24.87-.43,36.08,.07,1.92,.53,6.79,4.02,11.45,4.83,6.43,11.88,7.67,13.41,7.9,11.89,2.75,23.78,5.49,35.67,8.24,2.61,.87,7.49,2.9,12.03,7.47,4.09,4.12,6.06,8.45,6.99,10.97,.53,2.71,1.1,5.4,1.68,8.08,.72,3.76,1.5,7.51,2.33,11.25,1.04,5.14,2.18,10.26,3.44,15.36,.48,2.13,.97,4.25,1.48,6.38,.42,2.47,1.14,8.71-2.01,15.47-2.09,4.49-5.02,7.37-6.86,8.92-9.57,7.21-19.15,14.43-28.72,21.64-1.57,1.06-6.51,4.7-8.81,11.65-2.32,7.03-.44,12.95,.19,14.72,3.81,8.97,8.16,18.39,13.12,28.14,5.82,11.43,11.79,21.91,17.67,31.46,1.02,1.63,3.85,5.62,9.21,7.9,7.4,3.15,14.12,.7,15.56,.13,11.67-3.57,23.34-7.14,35.01-10.7,2.7-.55,7.94-1.24,14.15,.45,5.6,1.52,9.48,4.29,11.54,6,.02,.02,.03,.04,.05,.05,5.53,6.7,11.29,13.18,17.26,19.44,3.61,4.12,7.3,8.19,11.1,12.2,1.6,1.93,5.34,6.97,6,14.4,.44,4.93-.66,8.89-1.48,11.16-4.68,11.04-9.37,22.07-14.05,33.11-.83,1.7-3.29,7.32-1.8,14.5,1.51,7.24,6.09,11.44,7.52,12.65,7.78,5.86,16.26,11.85,25.44,17.81,10.76,6.99,21.16,13.09,31.03,18.41,1.7,.9,6.15,2.94,11.92,2.24,7.98-.97,12.58-6.46,13.55-7.67,8.32-8.93,16.65-17.85,24.97-26.78,2.06-1.82,6.25-5.04,12.48-6.68,5.61-1.48,10.35-1.02,13-.57,4.84,1.66,9.7,3.21,14.57,4.67,8.15,3,16.44,5.75,24.88,8.24,2.35,.87,8.11,3.37,12.39,9.47,2.84,4.05,3.88,8.03,4.3,10.4,1.46,11.9,2.92,23.8,4.38,35.7,.13,1.89,.81,7.99,5.69,13.45,4.93,5.52,10.99,6.86,12.84,7.19,9.67,1.19,20,2.13,30.93,2.7,12.81,.67,24.87,.75,36.08,.43,1.92-.07,6.79-.53,11.45-4.02,6.43-4.83,7.67-11.88,7.9-13.41,2.75-11.89,5.49-23.78,8.24-35.67,.87-2.61,2.9-7.49,7.47-12.03,4.12-4.09,8.45-6.06,10.97-6.99,6.78-1.33,13.48-2.83,20.11-4.49,6.99-1.29,13.98-2.77,20.97-4.45,2.47-.42,8.71-1.14,15.47,2.01,4.49,2.09,7.37,5.02,8.92,6.86,7.21,9.57,14.43,19.15,21.64,28.72,1.06,1.57,4.7,6.51,11.65,8.81,7.03,2.32,12.95,.44,14.72-.19,8.97-3.81,18.39-8.16,28.14-13.12,11.43-5.82,21.91-11.79,31.46-17.67,1.63-1.03,5.62-3.85,7.9-9.21,3.15-7.4,.7-14.12,.13-15.56-3.57-11.67-7.14-23.34-10.7-35.01-.55-2.7-1.24-7.94,.45-14.15,1.52-5.6,4.29-9.48,6-11.54,4.04-3.52,7.97-7.11,11.84-10.76,6.77-5.63,13.39-11.51,19.86-17.65,1.93-1.6,6.97-5.34,14.4-6,4.93-.44,8.89,.66,11.16,1.48,11.04,4.68,22.07,9.37,33.11,14.05,1.7,.83,7.32,3.29,14.5,1.8,7.24-1.51,11.44-6.09,12.65-7.52,5.86-7.78,11.85-16.26,17.81-25.43,6.99-10.76,13.09-21.16,18.41-31.03,.9-1.7,2.94-6.15,2.24-11.92-.97-7.98-6.46-12.58-7.67-13.55-8.93-8.32-17.85-16.65-26.78-24.97-1.82-2.06-5.04-6.25-6.68-12.48-1.48-5.61-1.02-10.35-.57-13,2.62-7.64,4.98-15.31,7.11-23.01,1.61-4.62,3.15-9.28,4.59-13.99,1.19-2.41,3.61-6.51,8.1-10.18,4.99-4.07,10.06-5.57,12.74-6.17,12.11-1.49,24.23-2.97,36.34-4.46,1.54-.07,8.69-.56,14.16-6.45,3.96-4.26,4.92-9.06,5.2-10.96,1.49-11.11,2.67-23.12,3.34-35.93,.57-10.93,.71-21.3,.54-31.04-.14-1.87-.84-8.05-5.81-13.52-4.93-5.42-10.92-6.73-12.79-7.06-11.68-2.7-23.36-5.39-35.04-8.09-2.32-.66-6.17-2.11-9.9-5.36-5.62-4.9-7.51-10.89-8.13-13.32-1.3-7.07-2.8-14.05-4.46-20.97-1.18-6.73-2.54-13.46-4.08-20.19-.17-2.68-.13-7.45,1.93-12.87,2.29-6.02,5.92-9.86,7.95-11.72,9.75-7.34,19.49-14.69,29.24-22.03,1.3-.83,7.24-4.83,9.04-12.67,1.3-5.67-.27-10.31-.98-12.09-4.27-10.37-9.25-21.36-15.07-32.78-4.97-9.75-10.03-18.8-15.05-27.16-1.06-1.55-4.75-6.55-11.8-8.81-6.98-2.23-12.83-.37-14.6,.28-11.46,3.51-22.93,7.01-34.39,10.52-2.34,.58-6.4,1.26-11.25,.31-7.32-1.43-11.94-5.68-13.7-7.47-5.71-6.69-11.59-13.15-17.65-19.37-3.32-3.85-6.71-7.66-10.19-11.41-1.49-2.23-3.84-6.38-4.77-12.11-1.03-6.36,.2-11.5,1.03-14.12,4.77-11.23,9.54-22.47,14.31-33.7,.71-1.37,3.86-7.81,1.49-15.49-1.71-5.56-5.39-8.79-6.9-9.98-8.88-6.85-18.68-13.87-29.44-20.86-9.18-5.96-18.09-11.27-26.61-15.99-1.69-.82-7.39-3.3-14.62-1.73-7.16,1.55-11.29,6.09-12.51,7.54-8.18,8.77-16.35,17.54-24.53,26.3-1.73,1.67-4.91,4.29-9.59,5.89-7.06,2.42-13.18,1.06-15.6,.38-5.2-1.85-10.43-3.57-15.66-5.18-8.15-2.91-16.42-5.53-24.78-7.86-.02,0-.05-.02-.07-.02-2.41-1.19-6.51-3.61-10.18-8.1-4.07-4.99-5.57-10.06-6.17-12.74-1.49-12.11-2.97-24.23-4.46-36.34-.07-1.54-.56-8.69-6.45-14.16-4.26-3.96-9.06-4.92-10.96-5.2-11.11-1.49-23.12-2.67-35.93-3.34-10.93-.57-21.3-.71-31.04-.54ZM485.51,161.79c-8.76,167.06-151.29,295.4-318.35,286.64C.1,439.68-128.24,297.15-119.48,130.08-110.73-36.98,31.8-165.32,198.87-156.56,365.93-147.8,494.27-5.27,485.51,161.79Z"/>
    <path class="cls-3" d="M2106.46,1071.05c14.91,38.27,24.96,79.51,29.27,122.68,.11-1.56,.03-2.74-.01-3.26-.14-12.2-.28-24.41-.41-36.61,.23-2.74,1.05-7.96,4.42-13.45,3.04-4.94,6.78-7.89,9.01-9.39,6.27-2.89,12.43-5.93,18.48-9.11,6.49-2.91,12.93-5.99,19.33-9.27,2.3-.99,8.19-3.16,15.51-1.7,4.85,.97,8.35,3.13,10.29,4.56,9.27,7.6,18.54,15.2,27.81,22.81,1.4,1.27,6.1,5.22,13.4,5.81,7.38,.59,12.69-2.62,14.26-3.66,7.82-5.82,15.95-12.26,24.25-19.39,9.73-8.35,18.52-16.62,26.4-24.59,1.34-1.38,4.55-5.07,5.51-10.81,1.32-7.93-2.65-13.89-3.54-15.16-6.22-10.5-12.44-21-18.66-31.5-1.17-2.49-3.07-7.42-2.9-13.86,.16-5.8,1.93-10.22,3.11-12.63,3.09-4.37,6.07-8.8,8.96-13.25,5.25-7.06,10.3-14.34,15.13-21.84,1.5-2.01,5.52-6.83,12.58-9.23,4.69-1.59,8.8-1.46,11.19-1.19,11.83,1.95,23.66,3.9,35.49,5.85,1.85,.4,7.89,1.47,14.51-1.67,6.68-3.17,9.68-8.62,10.52-10.3,3.86-8.95,7.68-18.59,11.3-28.92,4.25-12.1,7.72-23.65,10.57-34.5,.47-1.86,1.41-6.67-.64-12.12-2.82-7.53-9.24-10.7-10.65-11.35-10.64-5.98-21.27-11.96-31.91-17.95-2.26-1.57-6.37-4.89-9.44-10.55-2.76-5.1-3.44-9.82-3.62-12.5,.74-8.04,1.22-16.06,1.48-24.03,.47-4.87,.87-9.76,1.16-14.68,.59-2.62,1.97-7.18,5.47-11.8,3.89-5.14,8.46-7.79,10.93-9,11.42-4.3,22.84-8.61,34.26-12.91,1.48-.43,8.31-2.6,12.24-9.61,2.85-5.08,2.65-9.97,2.46-11.88-1.18-11.15-2.86-23.09-5.23-35.7-2.02-10.75-4.33-20.87-6.8-30.3-.58-1.79-2.71-7.62-8.84-11.77-6.07-4.11-12.2-3.96-14.09-3.85-11.99,.14-23.98,.27-35.96,.41-2.41-.1-6.49-.59-10.88-2.87-6.62-3.44-9.86-8.81-11.04-11.02-2.93-6.56-6.04-13-9.28-19.32-2.74-6.26-5.64-12.49-8.73-18.66-.8-2.56-1.89-7.2-1.16-12.96,.8-6.39,3.43-10.98,4.96-13.26,7.74-9.44,15.48-18.87,23.22-28.31,1.07-1.12,5.9-6.41,5.8-14.45-.07-5.82-2.69-9.95-3.81-11.52-6.59-9.07-14.02-18.57-22.38-28.3-7.13-8.3-14.19-15.9-21.03-22.84-1.4-1.26-6.16-5.24-13.54-5.77-7.31-.52-12.55,2.67-14.13,3.71-10.31,6.11-20.63,12.22-30.94,18.33-2.14,1.12-5.92,2.73-10.86,2.95-7.45,.33-12.95-2.7-15.07-4.03-7.12-5.16-14.37-10.04-21.72-14.66-4.13-2.96-8.32-5.86-12.6-8.68-1.98-1.82-5.23-5.3-7.49-10.64-2.5-5.94-2.52-11.22-2.33-13.97,1.98-12.04,3.97-24.08,5.95-36.13,.37-1.5,1.9-8.5-2.2-15.41-2.97-5-7.31-7.27-9.06-8.07-10.24-4.56-21.43-9.07-33.53-13.32-10.32-3.63-20.24-6.68-29.64-9.26-1.84-.39-7.96-1.46-14.61,1.77-6.59,3.2-9.54,8.59-10.38,10.28-5.88,10.45-11.75,20.9-17.63,31.35-1.29,2.04-3.76,5.32-7.93,7.99-6.29,4.01-12.56,4.14-15.07,4.05-5.49-.57-10.97-1.01-16.44-1.34-8.61-.9-17.26-1.5-25.94-1.79-.02,0-.05,0-.07,0-2.62-.59-7.18-1.97-11.8-5.47-5.14-3.89-7.79-8.46-9-10.93-4.3-11.42-8.61-22.84-12.91-34.26-.43-1.48-2.6-8.31-9.61-12.24-5.08-2.85-9.97-2.65-11.88-2.46-11.15,1.17-23.1,2.86-35.7,5.23-10.75,2.02-20.87,4.33-30.3,6.8-1.79,.58-7.62,2.71-11.77,8.84-4.11,6.07-3.96,12.2-3.85,14.09,.14,11.99,.27,23.98,.41,35.96-.1,2.41-.59,6.49-2.87,10.88-3.44,6.62-8.81,9.86-11.02,11.04-2,.89-3.98,1.8-5.96,2.72-4.81,2.12-9.56,4.34-14.27,6.66-3.47,1.62-6.91,3.29-10.33,5.02-2.48,1.18-4.96,2.37-7.43,3.61-2.56,.8-7.2,1.88-12.96,1.16-6.39-.8-10.98-3.43-13.26-4.96-9.44-7.74-18.87-15.48-28.31-23.22-1.12-1.07-6.41-5.9-14.45-5.8-5.82,.07-9.95,2.69-11.52,3.81-9.07,6.59-18.57,14.02-28.3,22.38-8.3,7.13-15.9,14.19-22.84,21.03-1.26,1.4-5.24,6.16-5.77,13.54-.52,7.31,2.67,12.55,3.71,14.13,6.11,10.31,12.22,20.63,18.33,30.94,1.12,2.14,2.73,5.92,2.95,10.86,.33,7.45-2.7,12.95-4.03,15.07-4.93,6.82-9.61,13.75-14.05,20.77-.28,.42-.56,.85-.84,1.27-2.88,4.03-5.7,8.11-8.45,12.28-1.82,1.98-5.3,5.23-10.64,7.49-5.94,2.5-11.22,2.52-13.97,2.33-12.04-1.98-24.08-3.97-36.13-5.95-1.5-.37-8.5-1.9-15.41,2.2-5,2.97-7.27,7.31-8.07,9.06-4.56,10.24-9.07,21.43-13.32,33.53-3.63,10.32-6.68,20.24-9.26,29.64-.39,1.84-1.46,7.96,1.77,14.61,3.2,6.59,8.59,9.54,10.28,10.38,10.45,5.88,20.9,11.75,31.35,17.63,2.04,1.29,5.32,3.76,7.99,7.93,4.01,6.29,4.14,12.56,4.05,15.07-.57,5.49-1.01,10.97-1.34,16.44-.13,1.23-.26,2.45-.37,3.68-.93,8.26-1.61,16.59-2.02,25-.29,2.49-1.36,8.67-6.28,14.28-3.26,3.72-6.89,5.66-9.1,6.63-11.22,4.23-22.44,8.45-33.66,12.68-1.8,.58-7.57,2.67-11.73,8.7-4.2,6.09-4.07,12.3-3.96,14.18,1.13,9.68,2.65,19.94,4.67,30.7,.63,3.35,1.29,6.63,1.97,9.86,32.58-17.73,78.67-37.98,132.6-47.92-22.95-159.65,83.83-310.5,243.88-340.59,164.41-30.91,322.75,77.32,353.66,241.73,27.94,148.6-57.79,292.22-195.92,341.3Z"/>
    <path class="cls-2" d="M1753.77,707.09c-1.87,.14-8.05,.84-13.52,5.81-5.42,4.93-6.73,10.92-7.06,12.79-2.7,11.68-5.39,23.36-8.09,35.04-.66,2.32-2.11,6.17-5.36,9.9-4.9,5.62-10.89,7.51-13.32,8.13-2.15,.4-4.29,.81-6.43,1.24-5.17,.92-10.32,1.96-15.44,3.1-3.75,.76-7.49,1.57-11.22,2.44-2.69,.56-5.38,1.14-8.07,1.75-2.68,.17-7.45,.13-12.87-1.93-6.02-2.29-9.86-5.92-11.72-7.95-7.34-9.75-14.69-19.49-22.03-29.24-.83-1.3-4.83-7.24-12.67-9.04-5.67-1.3-10.31,.27-12.09,.98-10.37,4.27-21.36,9.24-32.78,15.07-9.75,4.97-18.8,10.03-27.16,15.05-1.55,1.06-6.55,4.75-8.81,11.8-2.23,6.98-.37,12.83,.28,14.6,3.51,11.46,7.01,22.93,10.52,34.39,.58,2.34,1.26,6.4,.31,11.25-1.43,7.32-5.68,11.94-7.47,13.7-6.4,5.46-12.58,11.09-18.56,16.87-.37,.35-.74,.69-1.11,1.04-3.75,3.23-7.46,6.54-11.11,9.94-2.23,1.49-6.38,3.84-12.11,4.77-6.36,1.03-11.5-.2-14.12-1.03-11.23-4.77-22.47-9.54-33.7-14.31-1.37-.71-7.81-3.86-15.49-1.49-5.56,1.71-8.79,5.39-9.98,6.9-6.85,8.88-13.87,18.68-20.86,29.44-5.96,9.18-11.27,18.09-15.99,26.61-.82,1.69-3.3,7.39-1.73,14.62,1.55,7.16,6.09,11.29,7.54,12.51,8.77,8.18,17.54,16.35,26.3,24.53,1.67,1.73,4.29,4.91,5.89,9.59,2.42,7.06,1.06,13.18,.38,15.6-1.85,5.2-3.57,10.43-5.18,15.66-.41,1.16-.83,2.32-1.23,3.49-2.85,7.81-5.48,15.74-7.86,23.81-.87,2.35-3.37,8.11-9.47,12.39-4.05,2.84-8.03,3.88-10.4,4.3-11.9,1.46-23.8,2.92-35.7,4.38-1.89,.13-7.99,.81-13.45,5.69-5.52,4.93-6.86,10.99-7.19,12.84-1.19,9.67-2.13,20-2.7,30.93-.67,12.81-.75,24.87-.43,36.08,.07,1.92,.53,6.79,4.02,11.45,4.83,6.43,11.88,7.67,13.41,7.9,11.89,2.75,23.78,5.49,35.67,8.24,2.61,.87,7.49,2.9,12.03,7.47,4.09,4.12,6.06,8.45,6.99,10.97,.53,2.71,1.1,5.4,1.68,8.08,.72,3.76,1.5,7.51,2.33,11.25,1.04,5.14,2.18,10.26,3.44,15.36,.48,2.13,.97,4.25,1.48,6.38,.42,2.47,1.14,8.71-2.01,15.47-2.09,4.49-5.02,7.37-6.86,8.92-9.57,7.21-19.15,14.43-28.72,21.64-1.57,1.06-6.51,4.7-8.81,11.65-2.32,7.03-.44,12.95,.19,14.72,3.81,8.97,8.16,18.39,13.12,28.14,5.82,11.43,11.79,21.91,17.67,31.46,1.02,1.63,3.85,5.62,9.21,7.9,7.4,3.15,14.12,.7,15.56,.13,11.67-3.57,23.34-7.14,35.01-10.7,2.7-.55,7.94-1.24,14.15,.45,5.6,1.52,9.48,4.29,11.54,6,.02,.02,.03,.04,.05,.05,5.53,6.7,11.29,13.18,17.26,19.44,3.61,4.12,7.3,8.19,11.1,12.2,1.6,1.93,5.34,6.97,6,14.4,.44,4.93-.66,8.89-1.48,11.16-4.68,11.04-9.37,22.07-14.05,33.11-.83,1.7-3.29,7.32-1.8,14.5,1.51,7.24,6.09,11.44,7.52,12.65,7.78,5.86,16.26,11.85,25.44,17.81,10.76,6.99,21.16,13.09,31.03,18.41,1.7,.9,6.15,2.94,11.92,2.24,7.98-.97,12.58-6.46,13.55-7.67,8.32-8.93,16.65-17.85,24.97-26.78,2.06-1.82,6.25-5.04,12.48-6.68,5.61-1.48,10.35-1.02,13-.57,4.84,1.66,9.7,3.21,14.57,4.67,8.15,3,16.44,5.75,24.88,8.24,2.35,.87,8.11,3.37,12.39,9.47,2.84,4.05,3.88,8.03,4.3,10.4,1.46,11.9,2.92,23.8,4.38,35.7,.13,1.89,.81,7.99,5.69,13.45,4.93,5.52,10.99,6.86,12.84,7.19,9.67,1.19,20,2.13,30.93,2.7,12.81,.67,24.87,.75,36.08,.43,1.92-.07,6.79-.53,11.45-4.02,6.43-4.83,7.67-11.88,7.9-13.41,2.75-11.89,5.49-23.78,8.24-35.67,.87-2.61,2.9-7.49,7.47-12.03,4.12-4.09,8.45-6.06,10.97-6.99,6.78-1.33,13.48-2.83,20.11-4.49,6.99-1.29,13.98-2.77,20.97-4.45,2.47-.42,8.71-1.14,15.47,2.01,4.49,2.09,7.37,5.02,8.92,6.86,7.21,9.57,14.43,19.15,21.64,28.72,1.06,1.57,4.7,6.51,11.65,8.81,7.03,2.32,12.95,.44,14.72-.19,8.97-3.81,18.39-8.16,28.14-13.12,11.43-5.82,21.91-11.79,31.46-17.67,1.63-1.03,5.62-3.85,7.9-9.21,3.15-7.4,.7-14.12,.13-15.56-3.57-11.67-7.14-23.34-10.7-35.01-.55-2.7-1.24-7.94,.45-14.15,1.52-5.6,4.29-9.48,6-11.54,4.04-3.52,7.97-7.11,11.84-10.76,6.77-5.63,13.39-11.51,19.86-17.65,1.93-1.6,6.97-5.34,14.4-6,4.93-.44,8.89,.66,11.16,1.48,11.04,4.68,22.07,9.37,33.11,14.05,1.7,.83,7.32,3.29,14.5,1.8,7.24-1.51,11.44-6.09,12.65-7.52,5.86-7.78,11.85-16.26,17.81-25.43,6.99-10.76,13.09-21.16,18.41-31.03,.9-1.7,2.94-6.15,2.24-11.92-.97-7.98-6.46-12.58-7.67-13.55-8.93-8.32-17.85-16.65-26.78-24.97-1.82-2.06-5.04-6.25-6.68-12.48-1.48-5.61-1.02-10.35-.57-13,2.62-7.64,4.98-15.31,7.11-23.01,1.61-4.62,3.15-9.28,4.59-13.99,1.19-2.41,3.61-6.51,8.1-10.18,4.99-4.07,10.06-5.57,12.74-6.17,12.11-1.49,24.23-2.97,36.34-4.46,1.54-.07,8.69-.56,14.16-6.45,3.96-4.26,4.92-9.06,5.2-10.96,1.49-11.11,2.67-23.12,3.34-35.93,.57-10.93,.71-21.3,.54-31.04-.14-1.87-.84-8.05-5.81-13.52-4.93-5.42-10.92-6.73-12.79-7.06-11.68-2.7-23.36-5.39-35.04-8.09-2.32-.66-6.17-2.11-9.9-5.36-5.62-4.9-7.51-10.89-8.13-13.32-1.3-7.07-2.8-14.05-4.46-20.97-1.18-6.73-2.54-13.46-4.08-20.19-.17-2.68-.13-7.45,1.93-12.87,2.29-6.02,5.92-9.86,7.95-11.72,9.75-7.34,19.49-14.69,29.24-22.03,1.3-.83,7.24-4.83,9.04-12.67,1.3-5.67-.27-10.31-.98-12.09-4.27-10.37-9.25-21.36-15.07-32.78-4.97-9.75-10.03-18.8-15.05-27.16-1.06-1.55-4.75-6.55-11.8-8.81-6.98-2.23-12.83-.37-14.6,.28-11.46,3.51-22.93,7.01-34.39,10.52-2.34,.58-6.4,1.26-11.25,.31-7.32-1.43-11.94-5.68-13.7-7.47-5.71-6.69-11.59-13.15-17.65-19.37-3.32-3.85-6.71-7.66-10.19-11.41-1.49-2.23-3.84-6.38-4.77-12.11-1.03-6.36,.2-11.5,1.03-14.12,4.77-11.23,9.54-22.47,14.31-33.7,.71-1.37,3.86-7.81,1.49-15.49-1.71-5.56-5.39-8.79-6.9-9.98-8.88-6.85-18.68-13.87-29.44-20.86-9.18-5.96-18.09-11.27-26.61-15.99-1.69-.82-7.39-3.3-14.62-1.73-7.16,1.55-11.29,6.09-12.51,7.54-8.18,8.77-16.35,17.54-24.53,26.3-1.73,1.67-4.91,4.29-9.59,5.89-7.06,2.42-13.18,1.06-15.6,.38-5.2-1.85-10.43-3.57-15.66-5.18-8.15-2.91-16.42-5.53-24.78-7.86-.02,0-.05-.02-.07-.02-2.41-1.19-6.51-3.61-10.18-8.1-4.07-4.99-5.57-10.06-6.17-12.74-1.49-12.11-2.97-24.23-4.46-36.34-.07-1.54-.56-8.69-6.45-14.16-4.26-3.96-9.06-4.92-10.96-5.2-11.11-1.49-23.12-2.67-35.93-3.34-10.93-.57-21.3-.71-31.04-.54Zm310.87,457.65c-8.76,167.06-151.29,295.4-318.35,286.64-167.06-8.76-295.4-151.29-286.64-318.35,8.76-167.06,151.29-295.4,318.35-286.64,167.06,8.76,295.4,151.29,286.64,318.35Z"/>
  </g>
</svg>